# xmcd CD database file
#
# Track frame offsets:
#	150
#	14976
#	32904
#	50363
#	63968
#	75234
#	89552
#	107069
#	126647
#	141339
#
# Disc length: 2103 seconds
#
# Revision: 0
# Processed by: cddbd v1.5.1PL0 Copyright (c) Steve Scherf et al.
# Submitted via: CDex 1.51
#
DISCID=8e08350a
DTITLE=Peter Fernandez - Spanish Love Songs
DYEAR=2003
DGENRE=Salsa
TTITLE0=Mucho Corazon
TTITLE1=Besame
TTITLE2=Como Uele
TTITLE3=Mia
TTITLE4=Si Nos Dejan
TTITLE5=Si Vuelves
TTITLE6=Abrazame
TTITLE7=Be True To Me
TTITLE8=Tu Mundo y El Mio
TTITLE9=A New Life
EXTD=YEAR: 2003
EXTT0=
EXTT1=
EXTT2=
EXTT3=
EXTT4=
EXTT5=
EXTT6=
EXTT7=
EXTT8=
EXTT9=
PLAYORDER=
